HIERARCHY
ROOT Hips
{
  OFFSET -35.4901 99.2528 17.4586
  CHANNELS 6 Xposition Yposition Zposition Zrotation Xrotation Yrotation
  JOINT LeftUpLeg
  {
    OFFSET 8.64259 1.95398 -2.38835
    CHANNELS 3 Zrotation Xrotation Yrotation
    JOINT LeftLeg
    {
      OFFSET 43.7702 0 0
      CHANNELS 3 Zrotation Xrotation Yrotation
      JOINT LeftFoot
      {
        OFFSET 40.6238 0 0
        CHANNELS 3 Zrotation Xrotation Yrotation
        JOINT LeftToeBase
        {
          OFFSET 12.7242 0 0
          CHANNELS 3 Zrotation Xrotation Yrotation
          End Site
          {
            OFFSET 0 0 0
          }
        }
      }
    }
  }
  JOINT RightUpLeg
  {
    OFFSET -8.2249 1.95398 -2.59336
    CHANNELS 3 Zrotation Xrotation Yrotation
    JOINT RightLeg
    {
      OFFSET 43.5653 0 0
      CHANNELS 3 Zrotation Xrotation Yrotation
      JOINT RightFoot
      {
        OFFSET 40.6238 0 0
        CHANNELS 3 Zrotation Xrotation Yrotation
        JOINT RightToeBase
        {
          OFFSET 12.7242 0 0
          CHANNELS 3 Zrotation Xrotation Yrotation
          End Site
          {
            OFFSET 0 0 0
          }
        }
      }
    }
  }
  JOINT Spine
  {
    OFFSET 0.165834 0.87714 6.61349
    CHANNELS 3 Zrotation Xrotation Yrotation
    JOINT Spine1
    {
      OFFSET 7.38963 1.71661e-005 0
      CHANNELS 3 Zrotation Xrotation Yrotation
      JOINT Spine2
      {
        OFFSET 11.9445 1.14441e-005 0
        CHANNELS 3 Zrotation Xrotation Yrotation
        JOINT Spine3
        {
          OFFSET 14.7254 4.19617e-005 0
          CHANNELS 3 Zrotation Xrotation Yrotation
          JOINT Spine4
          {
            OFFSET 10.9679 0 0
            CHANNELS 3 Zrotation Xrotation Yrotation
            JOINT RightShoulder
            {
              OFFSET 2.46616 -1.6653 3.69651
              CHANNELS 3 Zrotation Xrotation Yrotation
              JOINT RightArm
              {
                OFFSET 13.0012 0 0
                CHANNELS 3 Zrotation Xrotation Yrotation
                JOINT RightForeArm
                {
                  OFFSET 28.7848 1.52588e-005 0
                  CHANNELS 3 Zrotation Xrotation Yrotation
                  JOINT RightHand
                  {
                    OFFSET 26.5688 1.52588e-005 0
                    CHANNELS 3 Zrotation Xrotation Yrotation
                    End Site
                    {
                      OFFSET 0 0 0
                    }
                  }
                }
              }
            }
            JOINT LeftShoulder
            {
              OFFSET 2.38034 -1.29275 -3.7523
              CHANNELS 3 Zrotation Xrotation Yrotation
              JOINT LeftArm
              {
                OFFSET 16.3182 6.10351e-005 0
                CHANNELS 3 Zrotation Xrotation Yrotation
                JOINT LeftForeArm
                {
                  OFFSET 27.0901 0 0
                  CHANNELS 3 Zrotation Xrotation Yrotation
                  JOINT LeftHand
                  {
                    OFFSET 24.5451 1.52588e-005 0
                    CHANNELS 3 Zrotation Xrotation Yrotation
                    End Site
                    {
                      OFFSET 0 0 0
                    }
                  }
                }
              }
            }
            JOINT Neck
            {
              OFFSET 5.0226 -0.0266342 0
              CHANNELS 3 Zrotation Xrotation Yrotation
              JOINT Head
              {
                OFFSET 6.69364 2.86102e-005 0
                CHANNELS 3 Zrotation Xrotation Yrotation
                End Site
                {
                  OFFSET 0 0 0
                }
              }
            }
          }
        }
      }
    }
  }
}
MOTION
Frames:	17
Frame Time:	0.0416667
43.4269 97.599 -55.4009 99.5014 27.7302 76.949 -177.011 31.0163 85.5359 -28.8106 -3.20967 -3.56269 76.7446 8.46472 -0.819441 20.111 1.49988 -1.38793 167.376 -8.81145 82.4671 -26.4755 -9.227 -2.01114 79.8779 -8.60939 -1.71022 25.3736 -0.377507 1.38994 2.3342 8.36854 -89.4676 10.1293 4.894 0.640993 -1.53252 4.91746 0.424449 -24.131 4.47467 2.08499 -4.11832 4.47467 2.08499 92.2151 -19.9486 -106.147 29.2918 -14.1832 -35.0321 -2.33124 -29.1458 -23.3841 -27.7406 0.358246 -10.0306 -83.5364 -42.9222 87.6556 -38.4323 -1.3977 35.6446 0.166414 -11.5995 -15.3327 -3.79176 -0.081446 -6.82784 -7.84834 4.67057 21.0961 -4.71388 3.22667 -2.617 
55.6916 91.2452 -67.4268 97.657 27.0964 80.6376 -177.1 30.8221 87.0627 -22.7939 -4.38302 -3.49407 70.0428 5.16977 -5.7307 19.0714 -4.2185 6.61324 162.768 -21.4683 78.4225 -22.2402 -11.669 -1.68715 88.7743 -12.9729 -2.89295 37.3796 -1.11022 2.17441 2.26104 8.03212 -89.8552 10.8135 4.56931 -0.12659 -0.849547 4.55928 -0.327994 -23.4454 4.39572 1.25526 -3.43279 4.39574 1.25526 91.0489 -21.2871 -108.198 34.0632 -13.8322 -32.0309 -4.74274 -33.9695 -21.9885 -29.6065 -0.182705 -8.09542 -80.8974 -54.2359 92.6524 -25.2963 4.37733 21.6139 -0.0904092 -11.3455 -1.85992 2.95739 0.0639348 -1.76612 -5.22761 6.4193 23.464 -6.76124 4.2224 -1.11692 
69.8221 89.8714 -79.9804 96.5655 30.8677 76.9333 -173.068 33.2031 80.0433 -39.3605 5.91235 -7.05048 64.7814 2.28897 -1.3719 8.38123 -0.369969 1.8997 163.335 -17.8863 73.8663 -40.8002 -9.76916 -5.61983 65.1208 -2.17675 -1.31862 52.5815 -2.13404 6.10365 1.84629 7.60463 -88.9135 11.6352 4.1817 1.73079 -0.0299673 4.25384 1.54479 -22.5958 3.46825 2.90836 -2.58317 3.46825 2.90836 90.4739 -25.7957 -107.476 42.6164 -16.6523 -17.1167 3.17501 -27.7077 -15.5874 -26.7776 -0.0767475 -7.77076 -81.4873 -53.8568 91.8082 -23.6056 3.6059 5.6252 0.752106 -26.0708 0.00121124 9.5946 0.545543 1.6931 -2.28103 6.48479 15.6678 -10.2473 4.71653 -1.96635 
81.1409 89.3751 -89.7631 101.027 35.0265 72.7011 -171.465 26.8808 75.9048 -54.253 11.1775 -6.81521 77.7761 8.05671 1.03229 6.40731 -0.899437 2.6197 176.749 1.12764 74.5309 -84.5162 -23.8019 -4.98866 59.4362 -0.312277 -0.332107 20.6817 -2.07611 5.55735 1.04215 7.88709 -88.5765 11.0605 2.73482 2.57261 -0.609888 2.84536 2.44977 -23.137 1.83566 3.27516 -3.12438 1.83568 3.27516 90.5982 -27.39 -106.567 47.5239 -12.9147 -1.72219 6.17682 -29.5913 -10.0894 -18.9632 0.0726538 -10.6184 -82.6121 -53.268 90.1303 -21.1169 7.39872 -16.1932 1.01746 -16.3962 -1.91107 -1.17293 -0.204061 -9.37377 0.126987 4.15915 4.17244 -8.72884 3.71089 -3.47085 
90.8574 95.4449 -98.2029 101.547 33.2582 78.847 -172.777 11.4525 82.0653 -43.578 13.0745 -6.65575 75.5968 7.1186 1.50733 14.6306 1.36398 -0.988855 -172.027 25.2834 82.9911 -96.5843 -5.86014 -2.76132 69.5346 -5.65859 -3.69502 20.011 -1.89251 5.20282 0.541859 7.99046 -89.3141 10.9029 1.39599 1.21591 -0.767893 1.44815 1.15329 -23.3021 0.96607 1.57917 -3.28943 0.966068 1.57917 90.3195 -28.6206 -106.647 44.2449 -5.64465 2.94839 11.0975 -24.7411 0.639861 -28.5364 -1.69299 -0.518234 -82.7975 -52.4435 89.7933 -17.342 3.21508 -33.1754 6.97037 4.78936 -14.5302 3.53139 -0.291262 -8.04996 -6.35802 3.84445 -1.66342 -7.16736 4.28684 -6.11051 
101.041 103.862 -107.225 106.068 40.2188 81.8413 -176.359 -1.20369 89.6797 -32.6217 16.0625 0.452953 59.043 -0.1875 -0.409627 13.4675 -0.719859 1.88648 -173.912 33.3498 87.3339 -82.6193 -0.282826 -3.46863 77.0153 -9.04869 -3.20321 17.4727 -0.596294 2.55285 -0.384464 8.363 -90.4942 10.1492 -0.991536 -0.90082 -1.52171 -1.03023 -0.856307 -24.056 -0.675002 -1.15714 -4.04337 -0.674996 -1.15715 88.8907 -28.5228 -109.575 40.2128 -2.95925 11.91 10.0616 -15.1064 -1.75666 -28.4432 -1.05969 -2.03355 -84.695 -45.8961 86.1556 -22.3384 0.956093 -43.7873 7.90649 -0.563918 -21.7778 4.02402 -0.581077 -13.0864 -15.9974 3.07454 -3.84571 -4.41862 3.17738 -3.95486 
111.217 106.398 -115.794 106.006 48.5666 84.0393 -173.89 -6.07769 92.6623 -24.0984 15.7629 -0.763416 60.8085 0.794448 -3.2353 15.2204 -3.49317 5.64184 -175.663 36.4428 89.6442 -66.5244 -7.34328 -4.21282 77.2141 -8.96933 -3.44092 17.2864 -1.1146 3.61855 -0.759745 8.34149 -91.164 10.1673 -2.0448 -2.13828 -1.50362 -2.13688 -2.04625 -24.0309 -1.30785 -2.6537 -4.01826 -1.30787 -2.65372 88.7141 -29.2688 -109.607 40.3233 -4.05484 19.2668 11.3921 -17.9575 -2.11593 -23.096 0.180052 -8.31196 -85.8749 -39.6943 83.2456 -28.8033 0.0884399 -55.9425 10.6881 0.121762 -30.4132 0.483952 -0.450358 -18.7268 -16.815 0.831326 -10.4628 -4.20133 0.799908 -2.27945 
121.714 102.934 -124.425 105.347 56.307 86.5537 -173.359 -7.7183 95.7674 -21.3111 4.81498 0.0931159 70.41 3.96703 -3.7755 17.2009 -3.41385 5.56402 179.369 34.2642 93.0982 -45.9872 -7.97442 -2.32925 73.8433 -7.40036 -2.08146 19.4509 -0.373642 1.88692 -1.25847 8.24394 -91.5952 10.3363 -3.23702 -2.88805 -1.33353 -3.36093 -2.7428 -23.8604 -2.22006 -3.72674 -3.84779 -2.22005 -3.72673 89.8704 -28.6838 -107.536 42.5646 -3.25453 22.0985 10.4543 -20.1347 -3.38453 -20.0508 0.0296504 -8.19331 -86.5426 -36.0107 81.3592 -34.1983 -2.24091 -65.7298 10.6793 -2.70297 -36.5299 3.55133 -0.844689 -18.8564 -13.5208 -1.08403 -15.4782 -5.96798 -0.676679 -2.1843 
133.823 96.2251 -134.895 105.574 59.3354 86.2848 -168.482 -20.1591 101.571 -20.0967 7.02671 0.288473 86.7465 10.6506 0.114406 29.4403 -2.18926 3.77071 176.01 27.6101 95.7613 -24.7786 -11.2001 0.241261 73.3584 -7.41407 -2.00229 23.6194 0.426743 -0.285826 -1.29877 8.06401 -91.545 10.7021 -3.29857 -2.78067 -0.967374 -3.41769 -2.6328 -23.4975 -2.31097 -3.6429 -3.48488 -2.31099 -3.64291 91.3499 -32.676 -103.235 39.1155 -1.02049 20.8684 9.48536 -18.7994 -3.00537 -17.7691 0.210466 -10.1042 -86.529 -37.6867 81.7151 -35.0799 1.26155 -68.6527 11.1332 -1.54657 -42.8355 4.48177 -0.958813 -18.8595 -10.9311 -2.97391 -18.0886 -6.6529 -2.0505 -3.33719 
146.731 92.4799 -147.809 101.475 56.3364 89.0725 -165.252 -26.9222 103.685 -22.7556 7.51843 0.823725 75.0846 6.88791 3.24726 53.4477 -0.817502 -1.59732 174.943 30.3025 98.1486 -33.1654 -11.9518 1.54968 62.7171 -1.61976 -2.03723 23.9616 -0.704257 2.33454 -0.741959 7.26771 -91.7981 12.2963 -2.32673 -3.31502 0.62357 -2.47028 -3.20952 -21.8839 -1.22365 -3.86026 -1.87129 -1.22364 -3.86027 94.4137 -30.6757 -97.7499 38.6377 5.72473 14.8058 7.23684 -15.0151 0.284175 -14.2576 -0.219858 -6.30835 -86.309 -44.6765 83.4018 -30.405 10.8461 -49.9572 10.3837 0.592816 -45.8893 1.99243 -0.627922 -19.0008 -9.62076 -3.16431 -8.33529 -11.5047 -2.54694 -2.4318 
156.524 89.5733 -158.435 105.358 50.6724 86.4653 -165.075 -8.45401 104.161 -68.0033 11.5829 4.26946 59.7254 0.726884 0.429943 19.7706 1.58051 -1.50772 174.196 29.6284 100.773 -54.8425 -15.6154 1.88352 74.4186 -7.76072 -5.94371 16.4927 -1.47356 4.37263 -0.169315 7.66377 -91.9414 11.5106 -1.24461 -3.74075 -0.164953 -1.40792 -3.68248 -22.657 -0.0637891 -3.94157 -2.64439 -0.0637859 -3.94158 90.4115 -30.9995 -105.577 35.3758 -1.06163 2.93797 9.33708 -14.494 -2.1315 -18.3472 0.296603 -9.49848 -85.7712 -49.3787 84.9869 -27.2999 14.8068 -30.3821 9.91837 7.94148 -30.3967 -2.73569 -0.0651188 -12.3737 -6.41022 0.843673 3.1535 -7.46935 0.475805 2.13362 
164.24 91.4185 -166.471 104.274 51.4582 84.1959 -172.189 22.2571 99.8637 -99.4112 12.5686 7.87309 64.8809 2.92487 4.256 11.4098 5.21801 -5.10895 174.163 21.912 98.6856 -55.7695 -15.1588 0.967979 82.6373 -11.9893 -6.72877 15.7661 -1.14613 3.77572 0.464518 7.7309 -91.5454 11.4152 0.20265 -3.0929 -0.259445 0.0663662 -3.09882 -22.7686 1.12251 -2.88933 -2.75595 1.12251 -2.88933 92.088 -26.9485 -103.627 37.2157 1.81957 -9.40539 5.72959 -16.6279 -7.82361 -27.1549 0.599056 -9.59635 -85.4787 -52.4875 85.8561 -27.67 9.35242 -17.7493 2.77229 -0.78326 -5.89385 9.75429 0.128768 -1.74732 -7.72221 1.50981 10.3087 -7.04071 0.609078 3.67827 
172.307 100.256 -176.522 105.272 47.8317 75.3305 -172.519 34.1382 81.6996 -85.7854 5.49076 3.84378 70.2138 5.42462 4.95565 9.08593 2.89547 -2.00029 175.556 6.60764 88.8907 -42.4509 -19.3102 -5.28353 71.3739 -5.35625 -5.67773 20.2631 -2.08268 5.5871 1.39223 8.12202 -90.1515 10.6613 2.70356 -0.53835 -1.00695 2.67718 -0.656878 -23.5656 2.74036 0.29967 -3.55292 2.74036 0.299671 92.035 -25.7572 -104.148 39.6928 2.04209 -13.7389 3.77591 -10.5667 -12.4434 -32.7998 0.282 -6.80696 -84.903 -49.8569 86.356 -26.7971 -0.844095 -0.981309 5.45018 -4.71834 -6.28041 8.62882 0.443591 1.05161 -15.5277 -0.042436 10.1349 -5.55772 -0.178418 2.27383 
180.34 106.098 -186.059 99.5784 38.9313 74.5377 -172.183 38.3728 77.6968 -64.1169 10.2763 -1.92143 75.6849 7.38095 1.68761 9.09871 1.6647 -0.534879 175.697 2.46559 86.2556 -36.1148 -27.7346 -8.83392 63.1825 -1.61623 -3.34219 22.2076 -1.88076 5.10125 2.19346 8.26435 -88.9519 10.3147 4.84956 1.66121 -1.34799 4.91794 1.44571 -23.9308 4.12599 3.04357 -3.91812 4.126 3.04357 91.1657 -21.1535 -108.07 42.2131 -5.36079 -18.1498 3.77426 -15.9875 -13.1298 -31.8707 0.577492 -8.58391 -85.9666 -45.9925 84.1674 -23.3175 3.03061 19.5018 1.29917 -8.89121 -16.8852 3.38622 -0.12711 -5.43272 -15.6221 1.97428 10.3059 -6.04258 1.81883 3.8666 
188.318 105.293 -195.173 97.5186 34.5466 74.5611 -173.814 35.8252 76.9473 -43.8135 3.20374 -6.50691 75.0425 6.68087 -0.621065 16.1422 0.746901 -0.000725079 170.715 0.0390628 83.9251 -22.9997 -14.3186 -3.76385 66.3247 -2.71452 -0.285225 17.1983 0.108233 1.12993 2.41585 8.3382 -88.637 10.145 5.43529 2.24855 -1.51607 5.52891 2.00658 -24.1032 4.5083 3.77991 -4.09052 4.50829 3.7799 90.349 -20.7483 -110.079 39.928 -9.00229 -23.7296 6.95386 -17.5606 -9.98638 -28.4339 0.860181 -10.4648 -85.1002 -43.5714 85.1808 -27.0338 9.62742 28.2362 -2.76701 -12.7713 -12.9759 3.29177 -0.18137 -6.20611 -15.3555 2.82389 14.9326 -5.83855 2.70947 2.13666 
196.547 99.6284 -205.186 95.8784 29.8034 75.8136 -178.188 32.2951 78.319 -24.8675 -6.76957 -5.76613 74.9723 7.19924 -0.775421 19.0736 -2.2734 3.94645 168.837 -4.05991 80.922 -27.0735 -13.4177 -4.50004 82.2353 -10.9522 -5.78057 24.5069 -1.20998 3.40581 2.64692 8.30644 -88.8626 10.2293 5.79356 1.76544 -1.42943 5.86564 1.50794 -24.0378 4.9948 3.42825 -4.0251 4.99477 3.42824 89.5565 -23.3314 -110.56 37.7706 -8.36333 -26.2657 5.96551 -19.2375 -10.3961 -29.0454 0.155651 -7.56888 -83.6227 -47.9129 88.0284 -24.6141 4.28339 30.2563 1.39577 -5.00837 -9.8079 -1.38974 -0.0694379 -2.77541 -16.3051 2.89017 21.487 -2.89751 3.01131 -0.0745288 
208.001 96.6972 -216.629 96.7059 28.1504 78.9777 179.092 26.1371 82.1284 -17.2287 -5.70352 -2.48228 72.5731 6.54006 -1.95979 13.4363 -2.0923 3.83825 162.984 -17.541 77.17 -20.4851 -17.2328 -3.03203 79.7653 -9.62682 -3.73941 39.3205 -1.81839 5.62447 2.57741 8.01287 -89.3817 10.8345 5.41673 0.72119 -0.825328 5.44322 0.481379 -23.4374 4.94907 2.31958 -3.42475 4.94906 2.31958 89.1838 -23.7176 -111.184 42.63 -10.2766 -20.7831 6.10552 -23.2361 -8.99392 -29.1016 -0.0756103 -7.12612 -79.7638 -54.8276 94.366 -19.4987 0.361136 20.7236 3.26975 -9.28123 -2.1693 1.48242 0.0590411 -0.320832 -16.5763 3.90129 21.9008 -5.27285 4.03119 0.367499 
